<mxfile host="app.diagrams.net" modified="2023-05-02T04:38:09.512Z" agent="5.0 (X11)" etag="2GhcldfyW4_XlreuGAOj" version="21.0.6" type="github">
  <diagram name="Page-1" id="74e2e168-ea6b-b213-b513-2b3c1d86103e">
    <mxGraphModel dx="1430" dy="795" grid="1" gridSize="10" guides="1" tooltips="1" connect="1" arrows="1" fold="1" page="1" pageScale="1" pageWidth="1100" pageHeight="850" background="none" math="0" shadow="0">
      <root>
        <mxCell id="0" />
        <mxCell id="1" parent="0" />
        <mxCell id="77e6c97f196da883-1" value="&lt;font style=&quot;font-size: 15px;&quot; face=&quot;Helvetica&quot;&gt;Datapath&lt;/font&gt;" style="swimlane;html=1;childLayout=stackLayout;startSize=20;rounded=0;shadow=0;labelBackgroundColor=none;strokeWidth=1;fontFamily=Verdana;fontSize=8;align=center;" parent="1" vertex="1">
          <mxGeometry x="70" y="40" width="960" height="670" as="geometry" />
        </mxCell>
        <mxCell id="77e6c97f196da883-2" value="Initialise" style="swimlane;html=1;startSize=20;" parent="77e6c97f196da883-1" vertex="1">
          <mxGeometry y="20" width="160" height="650" as="geometry" />
        </mxCell>
        <mxCell id="IfCaJYeIy0ByZ_xVafB3-11" style="edgeStyle=orthogonalEdgeStyle;rounded=0;orthogonalLoop=1;jettySize=auto;html=1;exitX=0.5;exitY=1;exitDx=0;exitDy=0;entryX=0.5;entryY=0;entryDx=0;entryDy=0;" edge="1" parent="77e6c97f196da883-2" source="77e6c97f196da883-8" target="IfCaJYeIy0ByZ_xVafB3-1">
          <mxGeometry relative="1" as="geometry" />
        </mxCell>
        <mxCell id="77e6c97f196da883-8" value="&lt;div style=&quot;font-size: 11px;&quot;&gt;&lt;font style=&quot;font-size: 11px;&quot; face=&quot;Helvetica&quot;&gt;Vectorise input string.&lt;/font&gt;&lt;/div&gt;&lt;div style=&quot;font-size: 11px;&quot;&gt;&lt;font style=&quot;font-size: 11px;&quot; face=&quot;Helvetica&quot;&gt;Output strings delimited&lt;/font&gt;&lt;/div&gt;&lt;div style=&quot;font-size: 11px;&quot;&gt;&lt;font style=&quot;font-size: 11px;&quot; face=&quot;Helvetica&quot;&gt;&lt;font style=&quot;font-size: 11px;&quot;&gt;by &quot;\n&quot; escape character.&lt;/font&gt;&lt;/font&gt;&lt;font style=&quot;font-size: 11px;&quot; face=&quot;Helvetica&quot;&gt;&lt;br&gt;&lt;/font&gt;&lt;/div&gt;" style="rounded=1;whiteSpace=wrap;html=1;shadow=0;labelBackgroundColor=none;strokeWidth=1;fontFamily=Verdana;fontSize=8;align=center;" parent="77e6c97f196da883-2" vertex="1">
          <mxGeometry x="15" y="40" width="130" height="70" as="geometry" />
        </mxCell>
        <mxCell id="IfCaJYeIy0ByZ_xVafB3-13" style="edgeStyle=orthogonalEdgeStyle;rounded=0;orthogonalLoop=1;jettySize=auto;html=1;entryX=0.5;entryY=0;entryDx=0;entryDy=0;" edge="1" parent="77e6c97f196da883-2" source="IfCaJYeIy0ByZ_xVafB3-1" target="IfCaJYeIy0ByZ_xVafB3-2">
          <mxGeometry relative="1" as="geometry" />
        </mxCell>
        <mxCell id="IfCaJYeIy0ByZ_xVafB3-1" value="&lt;div style=&quot;font-size: 11px;&quot;&gt;&lt;font style=&quot;font-size: 11px;&quot; face=&quot;Helvetica&quot;&gt;Convert strings into uint_32t vectors.&lt;br&gt;&lt;/font&gt;&lt;/div&gt;" style="rounded=1;whiteSpace=wrap;html=1;shadow=0;labelBackgroundColor=none;strokeWidth=1;fontFamily=Verdana;fontSize=8;align=center;" vertex="1" parent="77e6c97f196da883-2">
          <mxGeometry x="17.5" y="140" width="125" height="70" as="geometry" />
        </mxCell>
        <mxCell id="IfCaJYeIy0ByZ_xVafB3-14" style="edgeStyle=orthogonalEdgeStyle;rounded=0;orthogonalLoop=1;jettySize=auto;html=1;entryX=0.5;entryY=0;entryDx=0;entryDy=0;" edge="1" parent="77e6c97f196da883-2" source="IfCaJYeIy0ByZ_xVafB3-2" target="IfCaJYeIy0ByZ_xVafB3-8">
          <mxGeometry relative="1" as="geometry" />
        </mxCell>
        <mxCell id="IfCaJYeIy0ByZ_xVafB3-2" value="&lt;div style=&quot;font-size: 11px;&quot;&gt;&lt;font style=&quot;font-size: 11px;&quot; face=&quot;Helvetica&quot;&gt;Write vectors to progmem starting at offset 0x0000&lt;br&gt;&lt;/font&gt;&lt;/div&gt;" style="rounded=1;whiteSpace=wrap;html=1;shadow=0;labelBackgroundColor=none;strokeWidth=1;fontFamily=Verdana;fontSize=8;align=center;" vertex="1" parent="77e6c97f196da883-2">
          <mxGeometry x="17.5" y="240" width="125" height="70" as="geometry" />
        </mxCell>
        <mxCell id="IfCaJYeIy0ByZ_xVafB3-8" value="&lt;div style=&quot;font-size: 11px;&quot;&gt;&lt;font style=&quot;font-size: 11px;&quot; face=&quot;Helvetica&quot;&gt;Initialise CPU registers.&lt;/font&gt;&lt;/div&gt;&lt;div style=&quot;font-size: 11px;&quot;&gt;&lt;font style=&quot;font-size: 11px;&quot; face=&quot;Helvetica&quot;&gt;$sp =&amp;gt; 0x3FFC&lt;/font&gt;&lt;/div&gt;&lt;div style=&quot;font-size: 11px;&quot;&gt;&lt;font style=&quot;font-size: 11px;&quot; face=&quot;Helvetica&quot;&gt;$gp =&amp;gt; 0x1800&lt;/font&gt;&lt;/div&gt;&lt;div style=&quot;font-size: 11px;&quot;&gt;&lt;font style=&quot;font-size: 11px;&quot; face=&quot;Helvetica&quot;&gt;PC =&amp;gt; 0x0000&lt;br&gt;&lt;/font&gt;&lt;/div&gt;" style="rounded=1;whiteSpace=wrap;html=1;shadow=0;labelBackgroundColor=none;strokeWidth=1;fontFamily=Verdana;fontSize=8;align=center;" vertex="1" parent="77e6c97f196da883-2">
          <mxGeometry x="17.5" y="340" width="125" height="70" as="geometry" />
        </mxCell>
        <mxCell id="77e6c97f196da883-3" value="Instruction Fetch" style="swimlane;html=1;startSize=20;" parent="77e6c97f196da883-1" vertex="1">
          <mxGeometry x="160" y="20" width="160" height="650" as="geometry" />
        </mxCell>
        <mxCell id="IfCaJYeIy0ByZ_xVafB3-18" style="edgeStyle=orthogonalEdgeStyle;rounded=0;orthogonalLoop=1;jettySize=auto;html=1;entryX=0.5;entryY=0;entryDx=0;entryDy=0;" edge="1" parent="77e6c97f196da883-3" source="IfCaJYeIy0ByZ_xVafB3-15" target="IfCaJYeIy0ByZ_xVafB3-17">
          <mxGeometry relative="1" as="geometry" />
        </mxCell>
        <mxCell id="IfCaJYeIy0ByZ_xVafB3-15" value="&lt;div style=&quot;font-size: 11px;&quot;&gt;&lt;font style=&quot;font-size: 11px;&quot; face=&quot;Helvetica&quot;&gt;Fetch instructions from progmem, offset PC.&lt;/font&gt;&lt;/div&gt;&lt;div style=&quot;font-size: 11px;&quot;&gt;&lt;font style=&quot;font-size: 11px;&quot; face=&quot;Helvetica&quot;&gt;Increment offset 3 times for all 32 bits.&lt;br&gt;&lt;/font&gt;&lt;/div&gt;" style="rounded=1;whiteSpace=wrap;html=1;shadow=0;labelBackgroundColor=none;strokeWidth=1;fontFamily=Verdana;fontSize=8;align=center;fillColor=#d5e8d4;strokeColor=#82b366;" vertex="1" parent="77e6c97f196da883-3">
          <mxGeometry x="15" y="40" width="130" height="70" as="geometry" />
        </mxCell>
        <mxCell id="IfCaJYeIy0ByZ_xVafB3-17" value="&lt;div style=&quot;font-size: 11px;&quot;&gt;&lt;font style=&quot;font-size: 11px;&quot; face=&quot;Helvetica&quot;&gt;Increment PC by 4&lt;br&gt;&lt;/font&gt;&lt;/div&gt;" style="rounded=1;whiteSpace=wrap;html=1;shadow=0;labelBackgroundColor=none;strokeWidth=1;fontFamily=Verdana;fontSize=8;align=center;" vertex="1" parent="77e6c97f196da883-3">
          <mxGeometry x="15" y="140" width="130" height="70" as="geometry" />
        </mxCell>
        <mxCell id="IfCaJYeIy0ByZ_xVafB3-93" value="&lt;div style=&quot;font-size: 11px;&quot;&gt;&lt;font style=&quot;font-size: 11px;&quot; face=&quot;Helvetica&quot;&gt;Display PC&lt;br&gt;&lt;/font&gt;&lt;/div&gt;&lt;div style=&quot;font-size: 11px;&quot;&gt;&lt;font style=&quot;font-size: 11px;&quot; face=&quot;Helvetica&quot;&gt;Display Instr_reg[]&lt;br&gt;&lt;/font&gt;&lt;/div&gt;" style="rounded=1;whiteSpace=wrap;html=1;shadow=0;labelBackgroundColor=none;strokeWidth=1;fontFamily=Verdana;fontSize=8;align=center;" vertex="1" parent="77e6c97f196da883-3">
          <mxGeometry x="15" y="560" width="130" height="70" as="geometry" />
        </mxCell>
        <mxCell id="77e6c97f196da883-4" value="Instruction Decode" style="swimlane;html=1;startSize=20;" parent="77e6c97f196da883-1" vertex="1">
          <mxGeometry x="320" y="20" width="160" height="650" as="geometry" />
        </mxCell>
        <mxCell id="IfCaJYeIy0ByZ_xVafB3-47" style="edgeStyle=orthogonalEdgeStyle;rounded=0;orthogonalLoop=1;jettySize=auto;html=1;" edge="1" parent="77e6c97f196da883-4" source="IfCaJYeIy0ByZ_xVafB3-43" target="IfCaJYeIy0ByZ_xVafB3-46">
          <mxGeometry relative="1" as="geometry" />
        </mxCell>
        <mxCell id="IfCaJYeIy0ByZ_xVafB3-74" style="edgeStyle=orthogonalEdgeStyle;rounded=0;orthogonalLoop=1;jettySize=auto;html=1;" edge="1" parent="77e6c97f196da883-4" source="IfCaJYeIy0ByZ_xVafB3-43" target="IfCaJYeIy0ByZ_xVafB3-70">
          <mxGeometry relative="1" as="geometry" />
        </mxCell>
        <mxCell id="IfCaJYeIy0ByZ_xVafB3-43" value="Instr_reg[31:26]" style="rhombus;whiteSpace=wrap;html=1;" vertex="1" parent="77e6c97f196da883-4">
          <mxGeometry x="20" y="235" width="120" height="80" as="geometry" />
        </mxCell>
        <mxCell id="IfCaJYeIy0ByZ_xVafB3-46" value="&lt;div style=&quot;font-size: 11px;&quot;&gt;&lt;font style=&quot;font-size: 11px;&quot; face=&quot;Helvetica&quot;&gt;R-Type.&lt;/font&gt;&lt;/div&gt;&lt;div style=&quot;font-size: 11px;&quot;&gt;&lt;font style=&quot;font-size: 11px;&quot; face=&quot;Helvetica&quot;&gt;Set ALU flags by selecting correct index from operator array.&lt;br&gt;&lt;/font&gt;&lt;/div&gt;" style="rounded=1;whiteSpace=wrap;html=1;shadow=0;labelBackgroundColor=none;strokeWidth=1;fontFamily=Verdana;fontSize=8;align=center;" vertex="1" parent="77e6c97f196da883-4">
          <mxGeometry x="15" y="140" width="130" height="70" as="geometry" />
        </mxCell>
        <mxCell id="IfCaJYeIy0ByZ_xVafB3-70" value="&lt;div style=&quot;font-size: 11px;&quot;&gt;&lt;font style=&quot;font-size: 11px;&quot; face=&quot;Helvetica&quot;&gt;I-/J-Type.&lt;/font&gt;&lt;/div&gt;&lt;div style=&quot;font-size: 11px;&quot;&gt;&lt;font style=&quot;font-size: 11px;&quot; face=&quot;Helvetica&quot;&gt;Set ALU flags by selecting correct index from operator array.&lt;br&gt;&lt;/font&gt;&lt;/div&gt;" style="rounded=1;whiteSpace=wrap;html=1;shadow=0;labelBackgroundColor=none;strokeWidth=1;fontFamily=Verdana;fontSize=8;align=center;" vertex="1" parent="77e6c97f196da883-4">
          <mxGeometry x="15" y="340" width="130" height="70" as="geometry" />
        </mxCell>
        <mxCell id="IfCaJYeIy0ByZ_xVafB3-94" value="&lt;div style=&quot;font-size: 11px;&quot;&gt;&lt;font style=&quot;font-size: 11px;&quot; face=&quot;Helvetica&quot;&gt;Display instruction&lt;br&gt;&lt;/font&gt;&lt;/div&gt;&lt;div style=&quot;font-size: 11px;&quot;&gt;&lt;font style=&quot;font-size: 11px;&quot; face=&quot;Helvetica&quot;&gt;Display op_index&lt;br&gt;&lt;/font&gt;&lt;/div&gt;" style="rounded=1;whiteSpace=wrap;html=1;shadow=0;labelBackgroundColor=none;strokeWidth=1;fontFamily=Verdana;fontSize=8;align=center;" vertex="1" parent="77e6c97f196da883-4">
          <mxGeometry x="15" y="560" width="130" height="70" as="geometry" />
        </mxCell>
        <mxCell id="IfCaJYeIy0ByZ_xVafB3-98" value="=/= 0" style="text;html=1;strokeColor=none;fillColor=none;align=center;verticalAlign=middle;whiteSpace=wrap;rounded=0;" vertex="1" parent="77e6c97f196da883-4">
          <mxGeometry x="80" y="310" width="60" height="30" as="geometry" />
        </mxCell>
        <mxCell id="IfCaJYeIy0ByZ_xVafB3-99" value="= 0" style="text;html=1;strokeColor=none;fillColor=none;align=center;verticalAlign=middle;whiteSpace=wrap;rounded=0;" vertex="1" parent="77e6c97f196da883-4">
          <mxGeometry x="85" y="220" width="60" height="30" as="geometry" />
        </mxCell>
        <mxCell id="IfCaJYeIy0ByZ_xVafB3-100" value="J / JR" style="text;html=1;strokeColor=none;fillColor=none;align=center;verticalAlign=middle;whiteSpace=wrap;rounded=0;" vertex="1" parent="77e6c97f196da883-4">
          <mxGeometry x="20" y="50" width="60" height="30" as="geometry" />
        </mxCell>
        <mxCell id="77e6c97f196da883-5" value="Execute" style="swimlane;html=1;startSize=20;" parent="77e6c97f196da883-1" vertex="1">
          <mxGeometry x="480" y="20" width="160" height="650" as="geometry" />
        </mxCell>
        <mxCell id="IfCaJYeIy0ByZ_xVafB3-75" value="ALU" style="shape=trapezoid;perimeter=trapezoidPerimeter;whiteSpace=wrap;html=1;fixedSize=1;rotation=90;" vertex="1" parent="77e6c97f196da883-5">
          <mxGeometry x="22.5" y="52.5" width="120" height="115" as="geometry" />
        </mxCell>
        <mxCell id="IfCaJYeIy0ByZ_xVafB3-79" value="ALU" style="shape=trapezoid;perimeter=trapezoidPerimeter;whiteSpace=wrap;html=1;fixedSize=1;rotation=90;" vertex="1" parent="77e6c97f196da883-5">
          <mxGeometry x="20" y="390" width="120" height="115" as="geometry" />
        </mxCell>
        <mxCell id="IfCaJYeIy0ByZ_xVafB3-95" value="&lt;div style=&quot;font-size: 11px;&quot;&gt;&lt;font style=&quot;font-size: 11px;&quot; face=&quot;Helvetica&quot;&gt;Display register values before and after&lt;/font&gt;&lt;/div&gt;&lt;div style=&quot;font-size: 11px;&quot;&gt;&lt;font style=&quot;font-size: 11px;&quot; face=&quot;Helvetica&quot;&gt;Display calculated mem addresses.&lt;br&gt;&lt;/font&gt;&lt;/div&gt;" style="rounded=1;whiteSpace=wrap;html=1;shadow=0;labelBackgroundColor=none;strokeWidth=1;fontFamily=Verdana;fontSize=8;align=center;" vertex="1" parent="77e6c97f196da883-5">
          <mxGeometry x="15" y="560" width="130" height="70" as="geometry" />
        </mxCell>
        <mxCell id="77e6c97f196da883-6" value="Memory Access" style="swimlane;html=1;startSize=20;" parent="77e6c97f196da883-1" vertex="1">
          <mxGeometry x="640" y="20" width="160" height="650" as="geometry" />
        </mxCell>
        <mxCell id="IfCaJYeIy0ByZ_xVafB3-82" value="&lt;div style=&quot;font-size: 11px;&quot;&gt;&lt;font style=&quot;font-size: 11px;&quot; face=&quot;Helvetica&quot;&gt;Store Word to address at ALU_out.&lt;br&gt;&lt;/font&gt;&lt;/div&gt;" style="rounded=1;whiteSpace=wrap;html=1;shadow=0;labelBackgroundColor=none;strokeWidth=1;fontFamily=Verdana;fontSize=8;align=center;fillColor=#f8cecc;strokeColor=#b85450;" vertex="1" parent="77e6c97f196da883-6">
          <mxGeometry x="15" y="170" width="130" height="70" as="geometry" />
        </mxCell>
        <mxCell id="IfCaJYeIy0ByZ_xVafB3-84" value="&lt;div style=&quot;font-size: 11px;&quot;&gt;&lt;font style=&quot;font-size: 11px;&quot; face=&quot;Helvetica&quot;&gt;Read Word at address of ALU_out.&lt;br&gt;&lt;/font&gt;&lt;/div&gt;" style="rounded=1;whiteSpace=wrap;html=1;shadow=0;labelBackgroundColor=none;strokeWidth=1;fontFamily=Verdana;fontSize=8;align=center;" vertex="1" parent="77e6c97f196da883-6">
          <mxGeometry x="15" y="270" width="130" height="70" as="geometry" />
        </mxCell>
        <mxCell id="IfCaJYeIy0ByZ_xVafB3-96" value="&lt;div style=&quot;font-size: 11px;&quot;&gt;&lt;font style=&quot;font-size: 11px;&quot; face=&quot;Helvetica&quot;&gt;Display values read/written.&lt;br&gt;&lt;/font&gt;&lt;/div&gt;" style="rounded=1;whiteSpace=wrap;html=1;shadow=0;labelBackgroundColor=none;strokeWidth=1;fontFamily=Verdana;fontSize=8;align=center;" vertex="1" parent="77e6c97f196da883-6">
          <mxGeometry x="15" y="560" width="130" height="70" as="geometry" />
        </mxCell>
        <mxCell id="77e6c97f196da883-7" value="Write Back" style="swimlane;html=1;startSize=20;" parent="77e6c97f196da883-1" vertex="1">
          <mxGeometry x="800" y="20" width="160" height="650" as="geometry" />
        </mxCell>
        <mxCell id="IfCaJYeIy0ByZ_xVafB3-76" value="&lt;div style=&quot;font-size: 11px;&quot;&gt;&lt;font style=&quot;font-size: 11px;&quot; face=&quot;Helvetica&quot;&gt;Write ALU output back to&lt;/font&gt;&lt;/div&gt;&lt;div style=&quot;font-size: 11px;&quot;&gt;&lt;font style=&quot;font-size: 11px;&quot; face=&quot;Helvetica&quot;&gt;register specified in Instr_reg[].&lt;br&gt;&lt;/font&gt;&lt;/div&gt;" style="rounded=1;whiteSpace=wrap;html=1;shadow=0;labelBackgroundColor=none;strokeWidth=1;fontFamily=Verdana;fontSize=8;align=center;fillColor=#f8cecc;strokeColor=#b85450;" vertex="1" parent="77e6c97f196da883-7">
          <mxGeometry x="15" y="75" width="130" height="70" as="geometry" />
        </mxCell>
        <mxCell id="IfCaJYeIy0ByZ_xVafB3-86" value="&lt;div style=&quot;font-size: 11px;&quot;&gt;&lt;font style=&quot;font-size: 11px;&quot; face=&quot;Helvetica&quot;&gt;Write word to register specified in Instr_reg[].&lt;br&gt;&lt;/font&gt;&lt;/div&gt;" style="rounded=1;whiteSpace=wrap;html=1;shadow=0;labelBackgroundColor=none;strokeWidth=1;fontFamily=Verdana;fontSize=8;align=center;fillColor=#f8cecc;strokeColor=#b85450;" vertex="1" parent="77e6c97f196da883-7">
          <mxGeometry x="15" y="270" width="130" height="70" as="geometry" />
        </mxCell>
        <mxCell id="IfCaJYeIy0ByZ_xVafB3-91" value="&lt;div style=&quot;font-size: 11px;&quot;&gt;&lt;font style=&quot;font-size: 11px;&quot; face=&quot;Helvetica&quot;&gt;Write ALU output back to&lt;/font&gt;&lt;/div&gt;&lt;div style=&quot;font-size: 11px;&quot;&gt;&lt;font style=&quot;font-size: 11px;&quot; face=&quot;Helvetica&quot;&gt;register specified in Instr_reg[].&lt;br&gt;&lt;/font&gt;&lt;/div&gt;" style="rounded=1;whiteSpace=wrap;html=1;shadow=0;labelBackgroundColor=none;strokeWidth=1;fontFamily=Verdana;fontSize=8;align=center;fillColor=#f8cecc;strokeColor=#b85450;" vertex="1" parent="77e6c97f196da883-7">
          <mxGeometry x="15" y="412.5" width="130" height="70" as="geometry" />
        </mxCell>
        <mxCell id="IfCaJYeIy0ByZ_xVafB3-97" value="&lt;div style=&quot;font-size: 11px;&quot;&gt;&lt;font style=&quot;font-size: 11px;&quot; face=&quot;Helvetica&quot;&gt;Display values written back to cpu registers.&lt;br&gt;&lt;/font&gt;&lt;/div&gt;" style="rounded=1;whiteSpace=wrap;html=1;shadow=0;labelBackgroundColor=none;strokeWidth=1;fontFamily=Verdana;fontSize=8;align=center;" vertex="1" parent="77e6c97f196da883-7">
          <mxGeometry x="15" y="560" width="130" height="70" as="geometry" />
        </mxCell>
        <mxCell id="IfCaJYeIy0ByZ_xVafB3-21" style="edgeStyle=orthogonalEdgeStyle;rounded=0;orthogonalLoop=1;jettySize=auto;html=1;entryX=0;entryY=0.5;entryDx=0;entryDy=0;" edge="1" parent="77e6c97f196da883-1" source="IfCaJYeIy0ByZ_xVafB3-8" target="IfCaJYeIy0ByZ_xVafB3-15">
          <mxGeometry relative="1" as="geometry">
            <Array as="points">
              <mxPoint x="155" y="395" />
              <mxPoint x="155" y="95" />
            </Array>
          </mxGeometry>
        </mxCell>
        <mxCell id="IfCaJYeIy0ByZ_xVafB3-45" style="edgeStyle=orthogonalEdgeStyle;rounded=0;orthogonalLoop=1;jettySize=auto;html=1;entryX=0;entryY=0.5;entryDx=0;entryDy=0;" edge="1" parent="77e6c97f196da883-1" source="IfCaJYeIy0ByZ_xVafB3-17" target="IfCaJYeIy0ByZ_xVafB3-43">
          <mxGeometry relative="1" as="geometry">
            <Array as="points">
              <mxPoint x="240" y="295" />
            </Array>
          </mxGeometry>
        </mxCell>
        <mxCell id="IfCaJYeIy0ByZ_xVafB3-77" style="edgeStyle=orthogonalEdgeStyle;rounded=0;orthogonalLoop=1;jettySize=auto;html=1;" edge="1" parent="77e6c97f196da883-1" source="IfCaJYeIy0ByZ_xVafB3-75" target="IfCaJYeIy0ByZ_xVafB3-76">
          <mxGeometry relative="1" as="geometry" />
        </mxCell>
        <mxCell id="IfCaJYeIy0ByZ_xVafB3-78" style="edgeStyle=orthogonalEdgeStyle;rounded=0;orthogonalLoop=1;jettySize=auto;html=1;" edge="1" parent="77e6c97f196da883-1" source="IfCaJYeIy0ByZ_xVafB3-46" target="IfCaJYeIy0ByZ_xVafB3-75">
          <mxGeometry relative="1" as="geometry">
            <Array as="points">
              <mxPoint x="400" y="130" />
            </Array>
          </mxGeometry>
        </mxCell>
        <mxCell id="IfCaJYeIy0ByZ_xVafB3-81" style="edgeStyle=orthogonalEdgeStyle;rounded=0;orthogonalLoop=1;jettySize=auto;html=1;entryX=0.5;entryY=1;entryDx=0;entryDy=0;" edge="1" parent="77e6c97f196da883-1" source="IfCaJYeIy0ByZ_xVafB3-70" target="IfCaJYeIy0ByZ_xVafB3-79">
          <mxGeometry relative="1" as="geometry">
            <Array as="points">
              <mxPoint x="400" y="468" />
              <mxPoint x="482" y="468" />
            </Array>
          </mxGeometry>
        </mxCell>
        <mxCell id="IfCaJYeIy0ByZ_xVafB3-83" style="edgeStyle=orthogonalEdgeStyle;rounded=0;orthogonalLoop=1;jettySize=auto;html=1;entryX=0;entryY=0.5;entryDx=0;entryDy=0;" edge="1" parent="77e6c97f196da883-1" source="IfCaJYeIy0ByZ_xVafB3-79" target="IfCaJYeIy0ByZ_xVafB3-82">
          <mxGeometry relative="1" as="geometry">
            <Array as="points">
              <mxPoint x="560" y="225" />
            </Array>
          </mxGeometry>
        </mxCell>
        <mxCell id="IfCaJYeIy0ByZ_xVafB3-85" style="edgeStyle=orthogonalEdgeStyle;rounded=0;orthogonalLoop=1;jettySize=auto;html=1;entryX=0;entryY=0.5;entryDx=0;entryDy=0;" edge="1" parent="77e6c97f196da883-1" source="IfCaJYeIy0ByZ_xVafB3-79" target="IfCaJYeIy0ByZ_xVafB3-84">
          <mxGeometry relative="1" as="geometry">
            <Array as="points">
              <mxPoint x="560" y="325" />
            </Array>
          </mxGeometry>
        </mxCell>
        <mxCell id="IfCaJYeIy0ByZ_xVafB3-89" style="edgeStyle=orthogonalEdgeStyle;rounded=0;orthogonalLoop=1;jettySize=auto;html=1;" edge="1" parent="77e6c97f196da883-1" source="IfCaJYeIy0ByZ_xVafB3-84" target="IfCaJYeIy0ByZ_xVafB3-86">
          <mxGeometry relative="1" as="geometry" />
        </mxCell>
        <mxCell id="IfCaJYeIy0ByZ_xVafB3-90" style="edgeStyle=orthogonalEdgeStyle;rounded=0;orthogonalLoop=1;jettySize=auto;html=1;entryX=1;entryY=0.5;entryDx=0;entryDy=0;" edge="1" parent="77e6c97f196da883-1" source="IfCaJYeIy0ByZ_xVafB3-79" target="IfCaJYeIy0ByZ_xVafB3-15">
          <mxGeometry relative="1" as="geometry">
            <Array as="points">
              <mxPoint x="560" y="270" />
              <mxPoint x="490" y="270" />
              <mxPoint x="490" y="95" />
            </Array>
          </mxGeometry>
        </mxCell>
        <mxCell id="IfCaJYeIy0ByZ_xVafB3-92" style="edgeStyle=orthogonalEdgeStyle;rounded=0;orthogonalLoop=1;jettySize=auto;html=1;" edge="1" parent="77e6c97f196da883-1" source="IfCaJYeIy0ByZ_xVafB3-79" target="IfCaJYeIy0ByZ_xVafB3-91">
          <mxGeometry relative="1" as="geometry" />
        </mxCell>
        <mxCell id="IfCaJYeIy0ByZ_xVafB3-22" value="" style="endArrow=none;dashed=1;html=1;rounded=0;" edge="1" parent="1">
          <mxGeometry width="50" height="50" relative="1" as="geometry">
            <mxPoint x="70" y="600" as="sourcePoint" />
            <mxPoint x="1030" y="600" as="targetPoint" />
          </mxGeometry>
        </mxCell>
      </root>
    </mxGraphModel>
  </diagram>
</mxfile>
